<?xml version="1.0" encoding="utf-8"?>
<!-- Generator: Adobe Illustrator 23.0.5, SVG Export Plug-In . SVG Version: 6.00 Build 0)  -->
<svg version="1.1" id="Layer_1" xmlns="http://www.w3.org/2000/svg" xmlns:xlink="http://www.w3.org/1999/xlink" x="0px" y="0px"
	 viewBox="0 0 256 256" style="enable-background:new 0 0 256 256;" xml:space="preserve">
<style type="text/css">
	.st0{fill:#2563EB;}
</style>
<g>
	<path class="st0" d="M119.4,127.7c0-32.9-26.8-59.7-59.7-59.7S0,94.8,0,127.7c0,58.8,47.9,106.7,106.7,106.7V209
		c-21.6,0-41.2-8.5-55.8-22.3c2.9,0.4,5.8,0.7,8.8,0.7C92.6,187.4,119.4,160.6,119.4,127.7z M59.7,93.4c18.9,0,34.3,15.4,34.3,34.3
		S78.6,162,59.7,162s-34.3-15.4-34.3-34.3S40.8,93.4,59.7,93.4z"/>
	<path class="st0" d="M196.3,68.6c-3,0-5.9,0.2-8.8,0.7C202.1,55.5,221.7,47,243.3,47V21.6c-58.8,0-106.7,47.9-106.7,106.7
		c0,32.9,26.8,59.7,59.7,59.7s59.7-26.8,59.7-59.7S229.2,68.6,196.3,68.6z M196.3,162.6c-18.9,0-34.3-15.4-34.3-34.3
		S177.4,94,196.3,94s34.3,15.4,34.3,34.3S215.2,162.6,196.3,162.6z"/>
</g>
<path class="st0" d="M150.3,52.8c-17.5,4.9-21.6,9-26.5,26.5c0,0.1-0.2,0.1-0.3,0c-4.9-17.5-9-21.6-26.5-26.5c-0.1,0-0.1-0.2,0-0.3
	c17.5-4.9,21.6-9,26.5-26.5c0-0.1,0.2-0.1,0.3,0c4.9,17.5,9,21.6,26.5,26.5C150.5,52.6,150.5,52.8,150.3,52.8z"/>
</svg>
