<?xml version="1.0" encoding="utf-8"?>
<!-- Generator: Adobe Illustrator 23.0.5, SVG Export Plug-In . SVG Version: 6.00 Build 0)  -->
<svg version="1.0" id="Layer_1" xmlns="http://www.w3.org/2000/svg" xmlns:xlink="http://www.w3.org/1999/xlink" x="0px" y="0px"
	 viewBox="0 0 1198.1 517.2" style="enable-background:new 0 0 1198.1 517.2;" xml:space="preserve">
<style type="text/css">
	.st0{fill:#FFFFFF;}
</style>
<g>
	<g>
		<path class="st0" d="M156,273.9c-31.6,0-60.3-12.4-81.6-32.5c4.2,0.6,8.5,1,12.8,1c48.1,0,87.3-39.2,87.3-87.3
			s-39.2-87.3-87.3-87.3S0,106.9,0,155.1c0,86,70,156,156,156V273.9z M87.3,104.9c27.6,0,50.1,22.5,50.1,50.1s-22.5,50.1-50.1,50.1
			s-50.1-22.5-50.1-50.1S59.6,104.9,87.3,104.9z"/>
		<path class="st0" d="M479.7,67c-18.7,0-35.9,5.9-50.1,15.9V0h-37.1v241.4h37.1v-87.1c0-27.6,22.5-50.1,50.1-50.1
			s50.1,22.5,50.1,50.1v87.1H567v-87.1C567,106.2,527.8,67,479.7,67z"/>
		<path class="st0" d="M368.6,241.4V156c0-48.1-39.2-87.3-87.3-87.3s-87.3,39.2-87.3,87.3s39.2,87.3,87.3,87.3
			c18.7,0,35.9-5.9,50.1-15.9v14H368.6z M281.3,206.1c-27.6,0-50.1-22.5-50.1-50.1s22.5-50.1,50.1-50.1s50.1,22.5,50.1,50.1
			S309,206.1,281.3,206.1z"/>
		<path class="st0" d="M726.7,227.4v14h37.1V156c0-48.1-39.2-87.3-87.3-87.3s-87.3,39.2-87.3,87.3s39.2,87.3,87.3,87.3
			C695.2,243.3,712.5,237.4,726.7,227.4z M626.4,156c0-27.6,22.5-50.1,50.1-50.1s50.1,22.5,50.1,50.1s-22.5,50.1-50.1,50.1
			S626.4,183.6,626.4,156z"/>
		<path class="st0" d="M1061.9,154.2v87.2h37.1v-87.2c0-48.1-39.2-87.3-87.3-87.3c-27.9,0-52.7,13.2-68.7,33.6
			c-16-20.4-40.8-33.6-68.7-33.6c-18.7,0-35.9,5.9-50.1,15.9V70.6h-37.1v170.9h37.1v-87.2c0-27.6,22.5-50.1,50.1-50.1
			c27.6,0,50.1,22.5,50.1,50.1v87.2h37.1v-87.2c0-27.6,22.5-50.1,50.1-50.1C1039.4,104.1,1061.9,126.6,1061.9,154.2z"/>
		<path class="st0" d="M1110.8,342.5c-48.1,0-87.3,39.2-87.3,87.3s39.2,87.3,87.3,87.3c48.1,0,87.3-39.2,87.3-87.3
			S1158.9,342.5,1110.8,342.5z M1110.8,479.9c-27.6,0-50.1-22.5-50.1-50.1c0-27.6,22.5-50.1,50.1-50.1c27.6,0,50.1,22.5,50.1,50.1
			C1160.9,457.5,1138.4,479.9,1110.8,479.9z"/>
		<path class="st0" d="M965.5,358.4c-14.2-10-31.5-15.9-50.1-15.9c-48.1,0-87.3,39.2-87.3,87.3s39.2,87.3,87.3,87.3
			c18.7,0,35.9-5.9,50.1-15.9v14h37.1V273.8h-37.1V358.4z M915.4,479.9c-27.6,0-50.1-22.5-50.1-50.1c0-27.6,22.5-50.1,50.1-50.1
			s50.1,22.5,50.1,50.1C965.5,457.5,943,479.9,915.4,479.9z"/>
		<rect x="336.1" y="344.4" class="st0" width="37.1" height="170.9"/>
		<path class="st0" d="M720.3,340.8c-18.7,0-35.9,5.9-50.1,15.9v-12.3H633v170.9h37.1V428c0-27.6,22.5-50.1,50.1-50.1
			c27.6,0,50.1,22.5,50.1,50.1v87.2h37.1V428C807.6,379.9,768.5,340.8,720.3,340.8z"/>
		<circle class="st0" cx="354.7" cy="295.4" r="21.6"/>
		<rect x="572.2" y="344.4" class="st0" width="37.1" height="170.9"/>
		
			<ellipse transform="matrix(0.3827 -0.9239 0.9239 0.3827 91.8232 728.1828)" class="st0" cx="590.8" cy="295.4" rx="21.6" ry="21.6"/>
		<path class="st0" d="M224.8,342.6c-4.4,0-8.7,0.3-12.9,1c21.3-20.1,50-32.5,81.6-32.5v-37.1c-86,0-156,70-156,156
			c0,48.1,39.2,87.3,87.3,87.3s87.3-39.2,87.3-87.3S272.9,342.6,224.8,342.6z M224.8,480c-27.6,0-50.1-22.5-50.1-50.1
			s22.5-50.1,50.1-50.1s50.1,22.5,50.1,50.1S252.5,480,224.8,480z"/>
		<path class="st0" d="M410.1,429.9h37.1c0-27.6,22.5-50.1,50.1-50.1h39.2v-37.1h-39.2C449.2,342.6,410.1,381.8,410.1,429.9z"/>
		<path class="st0" d="M449.2,478.1h-39.2v37.1h39.2c48.1,0,87.3-39.2,87.3-87.3h-37.1C499.4,455.6,476.9,478.1,449.2,478.1z"/>
	</g>
	<path class="st0" d="M117.6,421.9c-37.4,10.6-46.6,19.8-57.2,57.2c-0.2,0.6-1.1,0.6-1.2,0C48.6,441.7,39.4,432.5,2,421.9
		c-0.6-0.2-0.6-1.1,0-1.2c37.4-10.6,46.6-19.8,57.2-57.2c0.2-0.6,1.1-0.6,1.2,0c10.6,37.4,19.8,46.6,57.2,57.2
		C118.2,420.8,118.2,421.7,117.6,421.9z"/>
</g>
</svg>
