<?xml version="1.0" encoding="utf-8"?>
<!-- Generator: Adobe Illustrator 23.0.0, SVG Export Plug-In . SVG Version: 6.00 Build 0)  -->
<svg version="1.1" id="Layer_1" xmlns="http://www.w3.org/2000/svg" xmlns:xlink="http://www.w3.org/1999/xlink" x="0px" y="0px"
	 viewBox="0 0 1080 1080" style="enable-background:new 0 0 1080 1080;" xml:space="preserve">
<style type="text/css">
	.st0{fill:#D63636;}
</style>
<path class="st0" d="M819.7,230.1l-69.1,46.1c-22.7,15.1-36.3,40.6-36.3,67.9v162.6c-5,11.2-30.9,68.4-67.1,124.3
	c-53.8,83.2-92.7,105.4-107.2,105.4c-6.6,0-22.4-0.9-26.3-9.5c-1.4-3.1-5.3-15.4,4-42.4c7.3-21.2,24.9-56.7,67.2-105.3l0,0
	c44-50.6,74.3-99.2,89.9-144.7c21-61.1,11.5-104.6-0.3-130.3c-22.6-49.6-72.8-79.1-134.5-79.1c-41.7,0-83.8,19.5-124.9,58
	c-16.3,15.3-32.8,33.8-49.4,55.4v-94.7c0-13-14.5-20.7-25.3-13.5l-69.1,46.1C248.6,291.3,235,316.7,235,344v492.4
	c0,13,14.5,20.7,25.3,13.5l69.1-46.1c22.7-15.1,36.3-40.6,36.3-67.9V574.2c4.8-10.9,30.3-67.4,66.4-123.6
	c54.2-84.4,93.3-106.9,107.9-106.9c6.6,0,22.4,0.9,26.3,9.5c1.4,3.1,5.3,15.4-4,42.4c-7.3,21.2-24.9,56.7-67.2,105.3l0,0
	c-44,50.6-74.3,99.2-89.9,144.7c-21,61.1-11.5,104.6,0.3,130.3c22.6,49.6,72.8,79.1,134.5,79.1c41.7,0,83.7-19.4,124.8-57.8
	c16.4-15.2,32.9-33.7,49.4-55.3v94.4c0,13,14.5,20.7,25.3,13.5l69.1-46.1c22.7-15.1,36.3-40.6,36.3-67.9V243.6
	C845,230.6,830.5,222.9,819.7,230.1z"/>
</svg>
